P2
5 1
255
   0   25   50   75   100

