P2
5 1
255
   100   75   50   25   0

