P2
# CREATOR: GIMP PNM Filter Version 1.1
20 20
255
0
0
0
0
255
255
255
255
255
255
255
255
255
255
255
255
255
255
255
255
0
255
255
255
255
0
255
0
0
0
0
0
0
0
0
255
255
255
255
255
0
255
255
255
0
255
255
0
255
255
255
255
255
255
255
255
255
255
255
255
0
255
255
0
255
255
255
0
255
255
255
255
255
255
255
255
255
255
255
255
255
255
0
255
255
255
255
0
255
255
126
126
255
255
255
255
255
255
255
255
255
0
255
255
255
255
255
0
255
255
126
126
255
255
255
255
255
255
255
255
255
255
255
255
255
255
255
0
255
255
126
126
255
255
255
255
255
255
255
255
255
255
255
255
255
255
255
0
255
255
126
126
255
255
255
255
255
255
255
255
255
255
255
255
255
255
255
0
255
255
126
126
255
255
255
255
255
255
255
255
255
255
255
255
255
255
255
0
255
255
126
126
255
255
255
255
255
255
255
255
255
255
255
255
255
255
255
255
255
255
126
126
255
255
255
255
255
255
255
255
255
255
255
255
255
255
255
255
255
255
126
126
255
255
255
36
36
255
255
255
255
255
255
255
255
255
255
255
255
255
126
126
255
255
255
36
36
255
255
255
255
255
255
255
255
255
255
255
255
255
126
126
255
255
255
36
36
255
255
255
255
255
255
255
255
255
255
255
255
255
126
126
255
255
255
36
36
255
255
255
255
255
222
222
222
222
255
255
255
255
255
255
255
255
255
36
36
255
255
255
255
255
222
222
222
222
255
255
255
255
255
255
255
255
255
36
36
255
255
255
255
255
222
222
222
222
255
255
255
255
255
255
255
255
255
255
255
255
255
255
255
255
222
222
222
222
255
255
255
255
255
255
255
255
255
255
255
255
255
255
255
255
255
255
255
255
255
255
255
255
255
255
255
255
255
255
255
255
255
255
