P2
# CREATOR: GIMP PNM Filter Version 1.1
8 7
255
0
0
0
0
0
0
0
0
0
0
126
126
126
126
0
0
0
0
126
0
0
0
0
0
0
0
126
126
126
0
0
0
0
0
126
0
0
0
0
0
0
0
126
0
0
0
0
0
0
0
0
0
0
0
0
0
